<?xml version="1.0" encoding="UTF-8" standalone="no"?>
<!DOCTYPE svg PUBLIC "-//W3C//DTD SVG 1.1//EN" "http://www.w3.org/Graphics/SVG/1.1/DTD/svg11.dtd">
<svg xmlns="http://www.w3.org/2000/svg" version="1.1" viewBox="0.00 0.00 1773.00 1773.00">
<path fill="#ffffff" d="
  M 351.60 1230.44
  C 347.25 1228.03 342.74 1225.99 338.33 1223.69
  A 1.90 1.89 -76.3 0 1 337.32 1222.01
  Q 337.35 1186.13 336.92 1150.99
  Q 336.80 1140.85 336.79 1131.00
  Q 336.68 854.47 336.67 577.81
  C 336.67 574.57 337.74 572.10 340.34 570.32
  Q 379.54 543.42 418.72 516.48
  Q 492.07 466.04 637.56 368.61
  Q 768.37 281.01 898.78 193.70
  A 2.25 2.24 -45.8 0 1 901.22 193.66
  Q 1063.82 295.07 1225.58 395.13
  C 1298.60 440.31 1371.86 486.50 1446.05 533.14
  A 3.30 3.27 16.3 0 1 1447.58 535.91
  Q 1447.82 614.17 1448.30 694.25
  Q 1448.36 704.23 1448.35 714.25
  Q 1448.17 905.52 1448.23 1105.75
  Q 1448.23 1115.52 1448.08 1125.75
  Q 1447.49 1166.45 1447.43 1195.25
  C 1447.42 1197.36 1446.75 1198.65 1444.97 1199.84
  Q 1382.50 1241.41 1313.18 1287.91
  Q 1228.44 1344.74 1146.10 1399.67
  Q 1091.77 1435.92 1023.58 1481.79
  Q 963.91 1521.93 901.05 1563.97
  A 2.91 2.89 43.4 0 1 897.95 1564.05
  Q 837.41 1527.66 777.20 1491.27
  Q 774.22 1489.47 771.35 1487.69
  Q 720.40 1456.10 667.23 1423.73
  C 659.71 1419.16 652.15 1414.85 644.70 1410.30
  Q 503.05 1323.66 361.61 1236.29
  Q 356.68 1233.25 351.60 1230.44
  Z
  M 900.07 369.75
  Q 900.79 369.55 901.42 369.94
  Q 988.27 423.34 1100.99 493.43
  A 1.39 1.39 0.0 0 0 1103.09 492.02
  Q 1102.80 490.33 1102.80 488.80
  Q 1102.62 447.93 1102.65 401.08
  A 2.90 2.89 -74.0 0 0 1101.30 398.63
  L 902.84 274.39
  A 2.18 2.17 44.1 0 0 900.49 274.42
  Q 808.58 336.17 716.77 398.29
  Q 709.09 403.49 701.94 408.52
  A 4.16 4.14 -17.8 0 0 700.18 411.93
  L 700.53 501.44
  A 0.55 0.54 6.7 0 0 700.95 501.97
  Q 701.29 502.05 701.57 501.87
  Q 797.03 437.90 898.91 370.28
  A 4.06 3.94 -68.7 0 1 900.07 369.75
  Z
  M 546.14 658.43
  C 542.65 660.24 541.21 663.35 541.37 667.35
  C 541.58 672.83 540.96 678.12 540.93 683.53
  Q 540.62 753.05 540.80 822.27
  C 540.80 823.86 540.24 825.21 540.24 826.85
  Q 540.18 842.94 540.49 859.25
  Q 540.51 860.39 540.51 861.50
  Q 541.03 984.58 540.90 1116.17
  Q 540.90 1119.48 540.64 1122.29
  C 540.37 1125.28 540.18 1129.64 541.54 1132.34
  Q 542.21 1133.68 544.07 1134.80
  Q 694.06 1224.69 842.23 1314.96
  C 861.96 1326.98 882.03 1338.67 901.68 1350.39
  A 2.80 2.78 45.9 0 0 904.44 1350.44
  C 908.51 1348.21 912.60 1345.98 916.43 1343.43
  Q 990.04 1294.57 1071.86 1240.93
  Q 1077.78 1237.05 1083.35 1233.34
  Q 1139.17 1196.13 1194.96 1159.10
  C 1214.95 1145.84 1234.41 1132.15 1254.94 1118.22
  C 1261.33 1113.89 1264.12 1112.64 1264.09 1104.75
  C 1263.88 1053.89 1263.37 1001.05 1263.16 952.50
  Q 1263.16 950.62 1263.16 948.50
  Q 1263.07 805.95 1263.82 648.33
  C 1263.84 644.87 1262.91 641.77 1259.93 640.07
  Q 1240.11 628.76 1221.56 616.89
  Q 1201.40 603.99 1184.76 593.67
  Q 1046.47 507.84 903.91 419.94
  Q 901.51 418.46 899.41 419.91
  C 842.76 458.75 786.41 496.55 727.65 535.82
  Q 704.59 551.23 681.65 566.83
  Q 615.42 611.86 549.11 656.67
  Q 547.73 657.61 546.14 658.43
  Z
  M 1300.64 617.87
  Q 1301.26 618.54 1301.26 619.89
  Q 1301.20 712.24 1301.25 802.50
  C 1301.25 817.67 1301.63 832.57 1301.52 847.66
  A 0.96 0.95 -1.9 0 0 1302.55 848.62
  Q 1303.29 848.56 1303.89 848.15
  Q 1334.07 827.31 1370.53 802.19
  A 2.38 2.36 -17.5 0 0 1371.56 800.24
  L 1371.49 568.72
  A 2.63 2.62 -74.0 0 0 1370.27 566.50
  Q 1267.56 501.61 1173.44 442.94
  Q 1172.82 442.56 1172.09 442.42
  A 0.68 0.67 5.6 0 0 1171.28 443.08
  L 1171.22 537.25
  Q 1171.22 538.48 1172.30 539.15
  Q 1235.75 578.54 1299.30 616.77
  A 5.97 5.89 84.0 0 1 1300.64 617.87
  Z
  M 495.07 640.64
  L 626.04 551.73
  A 2.97 2.97 0.0 0 0 627.33 549.38
  C 628.24 517.82 627.49 488.37 626.80 456.74
  A 0.45 0.44 -17.4 0 0 626.11 456.38
  Q 522.90 525.59 420.33 594.36
  C 418.47 595.60 417.34 597.74 417.63 599.88
  Q 418.20 604.02 418.20 608.25
  Q 418.20 745.30 418.17 870.92
  Q 418.17 871.84 418.98 872.04
  A 2.55 2.55 0.0 0 0 421.10 871.65
  Q 455.65 846.98 490.91 823.07
  Q 491.64 822.58 492.37 822.17
  C 495.03 820.70 494.57 818.96 494.58 816.34
  Q 494.69 786.01 494.63 755.79
  C 494.62 745.44 494.00 733.55 494.56 724.25
  Q 495.13 714.82 494.83 703.08
  Q 494.44 688.07 494.51 641.71
  Q 494.51 641.03 495.07 640.64
  Z
  M 1301.13 1115.25
  Q 1301.13 1122.94 1301.21 1130.36
  A 1.97 1.97 0.0 0 1 1300.33 1132.02
  L 1174.27 1216.47
  A 1.64 1.62 -16.9 0 0 1173.55 1217.80
  Q 1172.98 1260.92 1172.77 1300.31
  Q 1172.77 1301.24 1173.59 1301.65
  A 1.67 1.66 -48.1 0 0 1175.28 1301.55
  Q 1219.52 1272.20 1263.77 1242.88
  C 1265.83 1241.51 1268.46 1240.09 1270.74 1238.54
  Q 1319.64 1205.42 1370.45 1171.10
  A 3.40 3.39 -17.5 0 0 1371.95 1168.23
  Q 1371.88 1164.63 1371.87 1161.00
  Q 1371.41 1062.26 1371.11 962.50
  Q 1370.98 921.91 1371.01 881.23
  A 0.47 0.47 0.0 0 0 1370.28 880.84
  L 1302.59 927.14
  A 2.93 2.93 0.0 0 0 1301.33 929.51
  Q 1301.29 934.62 1301.28 939.25
  Q 1301.03 1024.24 1301.13 1115.25
  Z
  M 495.45 1143.95
  L 495.45 900.00
  A 0.86 0.82 89.0 0 0 494.60 899.14
  Q 494.10 899.16 493.51 899.56
  Q 456.50 924.40 419.63 949.16
  A 3.40 3.40 0.0 0 0 418.13 951.98
  Q 418.25 1065.47 418.06 1188.75
  Q 418.06 1191.90 419.65 1192.87
  Q 518.08 1252.75 614.38 1310.80
  Q 619.50 1313.89 624.54 1316.92
  A 0.93 0.93 0.0 0 0 625.88 1316.49
  C 626.02 1316.15 626.25 1315.54 626.25 1315.18
  Q 625.83 1269.08 625.39 1223.05
  A 0.72 0.71 -79.0 0 0 624.95 1222.39
  C 620.19 1220.42 615.53 1218.13 611.16 1215.45
  Q 554.79 1180.93 498.84 1146.77
  Q 497.30 1145.83 495.86 1144.76
  Q 495.45 1144.46 495.45 1143.95
  Z
  M 902.95 1394.21
  C 901.42 1395.23 900.41 1395.73 898.67 1394.67
  Q 799.91 1334.15 700.34 1273.16
  Q 699.23 1272.48 699.24 1273.78
  L 700.30 1362.99
  A 2.86 2.86 0.0 0 0 701.69 1365.41
  Q 799.51 1423.93 899.29 1483.84
  Q 901.46 1485.14 903.60 1483.74
  Q 1009.12 1414.63 1105.97 1349.75
  Q 1106.72 1349.25 1106.72 1348.25
  Q 1106.88 1306.10 1106.74 1261.42
  Q 1106.73 1258.26 1104.10 1260.01
  Q 999.37 1329.79 902.95 1394.21
  Z"
/>
<path fill="#ffffff" d="
  M 1186.57 1036.67
  Q 1186.69 1036.76 1186.83 1036.77
  Q 1187.05 1036.78 1187.11 1036.99
  Q 1187.86 1039.54 1187.51 1041.81
  Q 1187.19 1043.90 1187.15 1046.18
  Q 1186.87 1063.55 1186.25 1080.81
  A 3.00 3.00 0.0 0 1 1184.94 1083.17
  Q 1111.48 1132.80 1037.08 1183.20
  C 994.82 1211.83 952.16 1240.03 909.50 1268.54
  Q 905.60 1271.15 901.57 1268.66
  C 798.78 1205.29 710.71 1151.01 619.49 1096.56
  Q 616.65 1094.87 616.64 1090.78
  Q 616.51 1042.63 616.37 998.80
  Q 616.35 989.31 616.52 978.76
  Q 616.77 963.49 616.53 946.01
  C 616.19 921.19 616.49 890.52 616.55 860.26
  Q 616.70 774.22 616.42 713.73
  Q 616.41 711.07 618.37 709.72
  Q 748.92 619.90 902.18 517.68
  A 2.18 2.17 -46.2 0 1 904.53 517.63
  Q 1043.75 602.71 1185.34 691.45
  Q 1186.28 692.04 1186.28 693.15
  Q 1186.16 867.20 1186.15 1035.79
  A 1.13 1.13 0.0 0 0 1186.57 1036.67
  Z
  M 983.40 634.78
  Q 975.69 630.27 967.77 625.63
  Q 935.12 606.48 903.18 587.23
  A 0.76 0.75 43.1 0 0 902.38 587.25
  L 679.04 737.69
  A 0.50 0.50 0.0 0 0 679.06 738.53
  Q 783.56 801.93 878.90 861.43
  Q 880.34 862.33 881.75 861.35
  Q 949.36 814.52 1016.92 767.86
  C 1045.44 748.17 1073.64 727.84 1102.47 707.54
  A 1.43 1.43 0.0 0 0 1102.38 705.15
  Q 1043.96 670.15 983.40 634.78
  Z
  M 1121.78 1017.14
  A 0.69 0.69 0.0 0 0 1122.83 1016.55
  L 1122.89 763.59
  A 0.69 0.69 0.0 0 0 1121.81 763.02
  L 927.78 897.72
  A 0.69 0.69 0.0 0 0 927.81 898.87
  L 1121.78 1017.14
  Z
  M 711.87 825.82
  C 700.98 819.16 689.77 812.94 678.63 806.92
  A 0.32 0.32 0.0 0 0 678.16 807.20
  Q 678.25 919.56 678.20 1038.01
  C 678.20 1042.00 678.61 1045.94 678.80 1049.91
  A 0.66 0.66 0.0 0 0 679.83 1050.43
  Q 774.31 987.09 866.55 923.31
  Q 867.14 922.91 867.57 922.37
  A 1.01 1.01 0.0 0 0 867.31 920.88
  Q 790.89 874.12 711.87 825.82
  Z
  M 726.05 1092.68
  C 783.16 1127.17 839.68 1161.43 896.74 1195.27
  Q 898.24 1196.17 899.60 1197.38
  C 903.42 1200.81 908.97 1201.02 912.96 1198.14
  Q 936.35 1181.30 955.81 1168.85
  C 974.83 1156.70 994.09 1144.82 1012.83 1132.22
  Q 1055.81 1103.31 1099.64 1074.28
  A 1.29 1.29 0.0 0 0 1100.04 1072.54
  Q 1099.72 1072.00 1099.09 1071.60
  Q 1081.40 1060.54 1066.23 1051.42
  Q 990.41 1005.80 916.51 962.01
  A 2.99 2.99 0.0 0 0 913.31 962.10
  Q 829.97 1018.29 746.98 1074.47
  Q 735.91 1081.97 724.48 1089.97
  A 0.97 0.97 0.0 0 0 724.41 1091.50
  Q 725.19 1092.16 726.05 1092.68
  Z"
/>
</svg>
